<svg id="visual" viewBox="0 0 900 600" width="900" height="600" xmlns="http://www.w3.org/2000/svg" xmlns:xlink="http://www.w3.org/1999/xlink" version="1.1"><rect x="0" y="0" width="900" height="600" fill="#9aa62d"></rect><defs><linearGradient id="grad1_0" x1="33.3%" y1="0%" x2="100%" y2="100%"><stop offset="20%" stop-color="#9aa62d" stop-opacity="1"></stop><stop offset="80%" stop-color="#9aa62d" stop-opacity="1"></stop></linearGradient></defs><defs><linearGradient id="grad2_0" x1="0%" y1="0%" x2="66.7%" y2="100%"><stop offset="20%" stop-color="#9aa62d" stop-opacity="1"></stop><stop offset="80%" stop-color="#9aa62d" stop-opacity="1"></stop></linearGradient></defs><g transform="translate(900, 0)"><path d="M0 405.6C-40.1 387.2 -80.2 368.8 -113.4 349C-146.6 329.2 -172.9 308 -212.8 292.9C-252.6 277.7 -306 268.7 -328.2 238.4C-350.3 208.2 -341.3 156.7 -349 113.4C-356.8 70.1 -381.2 35.1 -405.6 0L0 0Z" fill="#d9e565"></path></g><g transform="translate(0, 600)"><path d="M0 -405.6C43.5 -403.9 87 -402.3 125.3 -385.8C163.6 -369.3 196.7 -338 222.8 -306.6C248.8 -275.2 267.8 -243.8 295.3 -214.5C322.8 -185.3 358.7 -158.4 378.5 -123C398.3 -87.6 402 -43.8 405.6 0L0 0Z" fill="#d9e565"></path></g></svg>