<svg class="animated" id="freepik_stories-charity" xmlns="http://www.w3.org/2000/svg" viewBox="0 0 500 500" version="1.1" xmlns:xlink="http://www.w3.org/1999/xlink" xmlns:svgjs="http://svgjs.com/svgjs"><style>svg#freepik_stories-charity:not(.animated) .animable {opacity: 0;}svg#freepik_stories-charity.animated #freepik--background-complete--inject-10 {animation: 1s 1 forwards cubic-bezier(.36,-0.01,.5,1.38) slideLeft;animation-delay: 0s;}svg#freepik_stories-charity.animated #freepik--Shadow--inject-10 {animation: 1s 1 forwards cubic-bezier(.36,-0.01,.5,1.38) fadeIn;animation-delay: 0s;}svg#freepik_stories-charity.animated #freepik--Box--inject-10 {animation: 1s 1 forwards cubic-bezier(.36,-0.01,.5,1.38) slideDown;animation-delay: 0s;}svg#freepik_stories-charity.animated #freepik--Device--inject-10 {animation: 1s 1 forwards cubic-bezier(.36,-0.01,.5,1.38) slideLeft;animation-delay: 0s;}svg#freepik_stories-charity.animated #freepik--Character--inject-10 {animation: 1s 1 forwards cubic-bezier(.36,-0.01,.5,1.38) fadeIn;animation-delay: 0s;}svg#freepik_stories-charity.animated #freepik--Love--inject-10 {animation: 1s 1 forwards cubic-bezier(.36,-0.01,.5,1.38) slideUp,1.5s Infinite  linear floating;animation-delay: 0s,1s;}            @keyframes slideLeft {                0% {                    opacity: 0;                    transform: translateX(-30px);                }                100% {                    opacity: 1;                    transform: translateX(0);                }            }                    @keyframes fadeIn {                0% {                    opacity: 0;                }                100% {                    opacity: 1;                }            }                    @keyframes slideDown {                0% {                    opacity: 0;                    transform: translateY(-30px);                }                100% {                    opacity: 1;                    transform: translateY(0);                }            }                    @keyframes slideUp {                0% {                    opacity: 0;                    transform: translateY(30px);                }                100% {                    opacity: 1;                    transform: inherit;                }            }                    @keyframes floating {                0% {                    opacity: 1;                    transform: translateY(0px);                }                50% {                    transform: translateY(-10px);                }                100% {                    opacity: 1;                    transform: translateY(0px);                }            }        </style><g id="freepik--background-complete--inject-10" class="animable" style="transform-origin: 250px 228.23px;"><path d="M439.31,153.37a11.15,11.15,0,0,0-11.12-13,11,11,0,0,0-1.83.16,12.87,12.87,0,0,0-23.43,3.13,8.46,8.46,0,0,0-2.48-.37,8.36,8.36,0,0,0-8.36,8.36,8.55,8.55,0,0,0,.19,1.76Z" style="fill: rgb(240, 240, 240); transform-origin: 415.777px 143.842px;" id="els6dncvbs0wh" class="animable"></path><path d="M145,108.86a19,19,0,0,0,.26-3,19.39,19.39,0,0,0-19.39-19.39,19.19,19.19,0,0,0-3.14.28A22.11,22.11,0,0,0,82.48,92.1a14.35,14.35,0,0,0-18.31,16.76Z" style="fill: rgb(240, 240, 240); transform-origin: 104.549px 92.4277px;" id="el8ddiqo93uc8" class="animable"></path><rect y="382.4" width="500" height="0.25" style="fill: rgb(235, 235, 235); transform-origin: 250px 382.525px;" id="elrqtamxng1h9" class="animable"></rect><rect x="416.78" y="398.49" width="33.12" height="0.25" style="fill: rgb(235, 235, 235); transform-origin: 433.34px 398.615px;" id="el0w1tfykbod2" class="animable"></rect><rect x="322.53" y="401.21" width="8.69" height="0.25" style="fill: rgb(235, 235, 235); transform-origin: 326.875px 401.335px;" id="elq3wzlje64mf" class="animable"></rect><rect x="396.59" y="389.21" width="19.19" height="0.25" style="fill: rgb(235, 235, 235); transform-origin: 406.185px 389.335px;" id="eltozg90ivvo9" class="animable"></rect><rect x="52.46" y="390.89" width="43.19" height="0.25" style="fill: rgb(235, 235, 235); transform-origin: 74.055px 391.015px;" id="elmj8f5u0ua3c" class="animable"></rect><rect x="104.56" y="390.89" width="6.33" height="0.25" style="fill: rgb(235, 235, 235); transform-origin: 107.725px 391.015px;" id="elrwfr5n6vkiq" class="animable"></rect><rect x="131.47" y="395.11" width="93.68" height="0.25" style="fill: rgb(235, 235, 235); transform-origin: 178.31px 395.235px;" id="el9nq9ba062de" class="animable"></rect><path d="M237,337.8H43.91a5.71,5.71,0,0,1-5.7-5.71V60.66A5.71,5.71,0,0,1,43.91,55H237a5.71,5.71,0,0,1,5.71,5.71V332.09A5.71,5.71,0,0,1,237,337.8ZM43.91,55.2a5.46,5.46,0,0,0-5.45,5.46V332.09a5.46,5.46,0,0,0,5.45,5.46H237a5.47,5.47,0,0,0,5.46-5.46V60.66A5.47,5.47,0,0,0,237,55.2Z" style="fill: rgb(235, 235, 235); transform-origin: 140.46px 196.4px;" id="el4rmispj901j" class="animable"></path><path d="M453.31,337.8H260.21a5.72,5.72,0,0,1-5.71-5.71V60.66A5.72,5.72,0,0,1,260.21,55h193.1A5.71,5.71,0,0,1,459,60.66V332.09A5.71,5.71,0,0,1,453.31,337.8ZM260.21,55.2a5.47,5.47,0,0,0-5.46,5.46V332.09a5.47,5.47,0,0,0,5.46,5.46h193.1a5.47,5.47,0,0,0,5.46-5.46V60.66a5.47,5.47,0,0,0-5.46-5.46Z" style="fill: rgb(235, 235, 235); transform-origin: 356.75px 196.4px;" id="elykcyfg4e30a" class="animable"></path><polygon points="37.91 353.46 37.91 286.98 69.93 286.98 69.93 268.8 85.26 268.8 85.26 215.37 105.06 195.57 145.26 195.57 145.26 252.82 200.41 252.82 200.41 264.13 239.4 264.13 239.4 249.27 281.29 249.27 281.29 238.07 314 238.07 314 171.75 371.91 171.75 371.91 214.01 385.24 214.01 385.24 229.32 416.23 229.32 416.23 254.43 432.79 254.43 445.53 267.17 445.53 280.13 458.22 280.13 458.22 353.46 37.91 353.46" style="fill: rgb(240, 240, 240); transform-origin: 248.065px 262.605px;" id="elf6ehn3v0sk" class="animable"></polygon><polygon points="76.91 286.98 70.48 286.98 69.93 286.6 69.93 286.98 37.91 286.98 37.91 353.46 76.91 353.46 76.91 286.98" style="fill: rgb(230, 230, 230); transform-origin: 57.41px 320.03px;" id="ellw2q5nhiqv" class="animable"></polygon><polygon points="239.96 254.11 239.96 264.13 238.38 264.13 236.7 274.85 241.45 353.46 294.28 353.46 294.28 249.27 281.85 249.27 240.71 249.27 239.96 254.11" style="fill: rgb(230, 230, 230); transform-origin: 265.49px 301.365px;" id="el0thzb8gchit" class="animable"></polygon><polygon points="362.95 229.32 362.95 353.46 458.77 353.46 458.77 280.13 446.08 280.13 446.08 267.17 433.34 254.43 416.78 254.43 416.78 229.32 388.65 229.32 385.79 229.32 362.95 229.32" style="fill: rgb(230, 230, 230); transform-origin: 410.86px 291.39px;" id="el6qtsab68c9c" class="animable"></polygon><rect x="427.61" y="261.17" width="5.79" height="5.79" style="fill: rgb(255, 255, 255); transform-origin: 430.505px 264.065px;" id="el2fnjkmbif62" class="animable"></rect><rect x="417.38" y="261.17" width="5.79" height="5.79" style="fill: rgb(255, 255, 255); transform-origin: 420.275px 264.065px;" id="eltjs0qms8db" class="animable"></rect><rect x="427.61" y="271.96" width="5.79" height="5.79" style="fill: rgb(255, 255, 255); transform-origin: 430.505px 274.855px;" id="el1x01tmgopvj" class="animable"></rect><rect x="417.38" y="271.96" width="5.79" height="5.79" style="fill: rgb(255, 255, 255); transform-origin: 420.275px 274.855px;" id="elxg8ybnr8d5h" class="animable"></rect><rect x="395.99" y="233.99" width="5.79" height="5.79" style="fill: rgb(255, 255, 255); transform-origin: 398.885px 236.885px;" id="el6a0mc3avf7t" class="animable"></rect><rect x="385.76" y="233.99" width="5.79" height="5.79" style="fill: rgb(255, 255, 255); transform-origin: 388.655px 236.885px;" id="elahxsjwpbzbd" class="animable"></rect><rect x="64.4" y="296.35" width="5.79" height="5.79" style="fill: rgb(255, 255, 255); transform-origin: 67.295px 299.245px;" id="el3fdmuf0z4ch" class="animable"></rect><rect x="54.17" y="296.35" width="5.79" height="5.79" style="fill: rgb(255, 255, 255); transform-origin: 57.065px 299.245px;" id="elms5dmgm1q17" class="animable"></rect><g id="eldaw46svd024"><rect x="281.82" y="266.28" width="5.79" height="5.79" style="fill: rgb(255, 255, 255); transform-origin: 284.715px 269.175px; transform: rotate(90deg);" class="animable"></rect></g><g id="elxhhipia8mp"><rect x="281.82" y="256.05" width="5.79" height="5.79" style="fill: rgb(255, 255, 255); transform-origin: 284.715px 258.945px; transform: rotate(90deg);" class="animable"></rect></g></g><g id="freepik--Shadow--inject-10" class="animable" style="transform-origin: 248.06px 416.24px;"><ellipse id="freepik--path--inject-10" cx="248.06" cy="416.24" rx="193.89" ry="11.32" style="fill: rgb(245, 245, 245); transform-origin: 248.06px 416.24px;" class="animable"></ellipse></g><g id="freepik--Box--inject-10" class="animable" style="transform-origin: 401.78px 389.53px;"><rect x="388.9" y="366.94" width="54.63" height="45.18" style="fill: rgb(156, 190, 37); transform-origin: 416.215px 389.53px;" id="elug4wxny0gj" class="animable"></rect><g id="elji4yhc7hfzs"><rect x="388.9" y="366.94" width="54.63" height="45.18" style="fill: rgb(255, 255, 255); opacity: 0.3; isolation: isolate; transform-origin: 416.215px 389.53px;" class="animable"></rect></g><rect x="360.03" y="366.94" width="42.34" height="45.18" style="fill: rgb(156, 190, 37); transform-origin: 381.2px 389.53px;" id="elryseyvool8" class="animable"></rect><g id="elqz6klfsxzi"><rect x="360.03" y="366.94" width="42.34" height="45.18" style="fill: rgb(255, 255, 255); opacity: 0.1; isolation: isolate; transform-origin: 381.2px 389.53px;" class="animable"></rect></g><g id="eldq62rcnlls4"><rect x="375.21" y="366.94" width="11.98" height="14.06" style="fill: rgb(255, 255, 255); opacity: 0.3; isolation: isolate; transform-origin: 381.2px 373.97px;" class="animable"></rect></g><g id="eldi2y9o0z0iu"><rect x="419.91" y="366.94" width="11.98" height="14.06" style="opacity: 0.1; isolation: isolate; transform-origin: 425.9px 373.97px;" class="animable"></rect></g><path d="M420.56,393.53l-1.58,0a12.71,12.71,0,0,1,0-1.38c0-.72.55-2.11,1.55-1.48.31.19.67-.25.36-.44a1.58,1.58,0,0,0-2.38,1.14,7.66,7.66,0,0,0-.1,2.14l-.91,0c-.36,0-.46.55-.09.56l1,0c0,.88,0,1.76,0,2.64,0,.37.57.3.57-.06,0-.86,0-1.71,0-2.57l1.48,0C420.83,394.1,420.93,393.54,420.56,393.53Z" style="fill: rgb(255, 255, 255); transform-origin: 419.093px 393.48px;" id="eldca5psnepnq" class="animable"></path><path d="M423.18,392.29a.25.25,0,0,0-.12,0c-2.59-.19-2.18,4.05.3,4a2.16,2.16,0,0,0,1.85-2.23A1.74,1.74,0,0,0,423.18,392.29Zm.39,3.39c-1.87.49-2.47-3-.55-2.79a.34.34,0,0,0,.18,0h0C425,392.62,425,395.3,423.57,395.68Z" style="fill: rgb(255, 255, 255); transform-origin: 423.256px 394.278px;" id="elx5bevea1ali" class="animable"></path><path d="M429.36,393.34c-.77-2.5-4.65-.45-3.54,1.83a2.18,2.18,0,0,0,2.76.81,1.74,1.74,0,0,0,.84-2.56Zm-3.09,1.43c-.53-1.52,2-3,2.56-1.2a.22.22,0,0,0,.11.15,0,0,0,0,1,0,0C429.92,395.47,426.81,396.35,426.27,394.77Z" style="fill: rgb(255, 255, 255); transform-origin: 427.658px 394.189px;" id="elqzjp59lzov" class="animable"></path><path d="M433.7,396.1c-.17-2.3-.33-4.6-.5-6.89,0-.37-.59-.3-.57.06l.21,2.9a2.09,2.09,0,0,0-2.73,1.86c-.08,1.55,1.72,2.08,3,1.91v.22C433.16,396.52,433.73,396.46,433.7,396.1Zm-3-1.82a1.54,1.54,0,0,1,2-1.57.33.33,0,0,0,.17,0c.07.88.13,1.76.2,2.65C432.2,395.48,430.83,395.3,430.68,394.28Z" style="fill: rgb(255, 255, 255); transform-origin: 431.904px 392.683px;" id="eljmym5sbv69" class="animable"></path></g><g id="freepik--Device--inject-10" class="animable" style="transform-origin: 182.5px 251.28px;"><rect x="100.02" y="95.51" width="164.95" height="311.54" rx="15" style="fill: rgb(38, 50, 56); transform-origin: 182.495px 251.28px;" id="el2v242habt5o" class="animable"></rect><rect x="110.69" y="116.28" width="143.62" height="250.56" style="fill: rgb(156, 190, 37); transform-origin: 182.5px 241.56px;" id="elqjka79fva49" class="animable"></rect><g id="elqcgrtc7vfk"><rect x="110.69" y="342" width="143.62" height="24.83" style="fill: rgb(255, 255, 255); opacity: 0.3; transform-origin: 182.5px 354.415px;" class="animable"></rect></g><g id="elbjzq4uqzur"><path d="M254.31,219.38c-36.51,36.31-104.12,104.23-143.62,144v3.5h80.25l63.37-63.36Z" style="fill: rgb(255, 255, 255); opacity: 0.1; transform-origin: 182.5px 293.13px;" class="animable"></path></g><g id="eloolcjc16e7n"><path d="M110.69,242.28l126-126H177.77c-15.6,15.48-42.25,42.18-67.08,67.1Z" style="fill: rgb(255, 255, 255); opacity: 0.1; transform-origin: 173.69px 179.28px;" class="animable"></path></g><g id="elnur1br1fdeb"><polygon points="110.69 294.95 254.31 151.33 254.31 120.6 110.69 264.21 110.69 294.95" style="fill: rgb(255, 255, 255); opacity: 0.1; transform-origin: 182.5px 207.775px;" class="animable"></polygon></g><g id="elntnedz8ql3"><rect x="110.69" y="116.28" width="143.62" height="11.3" style="opacity: 0.2; isolation: isolate; transform-origin: 182.5px 121.93px;" class="animable"></rect></g><g id="el4n359gkjjr"><circle cx="182.5" cy="384.04" r="9.79" style="fill: rgb(156, 190, 37); transform-origin: 182.5px 384.04px; transform: rotate(-9.22deg);" class="animable"></circle></g><g id="elr6vawcjcj4s"><g style="opacity: 0.6; isolation: isolate; transform-origin: 121.99px 121.62px;" class="animable"><g id="el87xhxuv88e2"><rect x="126.22" y="121.62" width="2.17" height="2.9" style="fill: rgb(255, 255, 255); opacity: 0.6; isolation: isolate; transform-origin: 127.305px 123.07px; transform: rotate(180deg);" class="animable"></rect></g><g id="elgnbp5safqov"><rect x="122.68" y="120.65" width="2.17" height="3.86" style="fill: rgb(255, 255, 255); opacity: 0.6; isolation: isolate; transform-origin: 123.765px 122.58px; transform: rotate(180deg);" class="animable"></rect></g><g id="elusgq0x1ola"><rect x="119.13" y="119.69" width="2.17" height="4.83" style="fill: rgb(255, 255, 255); opacity: 0.6; isolation: isolate; transform-origin: 120.215px 122.105px; transform: rotate(180deg);" class="animable"></rect></g><g id="elhc7urr7p9lj"><rect x="115.59" y="118.72" width="2.17" height="5.8" style="fill: rgb(255, 255, 255); opacity: 0.6; isolation: isolate; transform-origin: 116.675px 121.62px; transform: rotate(180deg);" class="animable"></rect></g></g></g><g id="eljwdfz7ez5ba"><rect x="237.78" y="120.56" width="1.29" height="2.9" style="fill: rgb(255, 255, 255); opacity: 0.6; isolation: isolate; transform-origin: 238.425px 122.01px;" class="animable"></rect></g><g id="elo3nvk7auo5"><rect x="239.95" y="119.51" width="10.27" height="5.01" style="fill: rgb(255, 255, 255); opacity: 0.6; isolation: isolate; transform-origin: 245.085px 122.015px; transform: rotate(180deg);" class="animable"></rect></g><g id="el7ts43miz55e"><path d="M189.65,266C186.36,263,182.5,267,182.5,267s-3.85-4-7.15-1.05c-4.7,4.21,2.13,11.74,7.15,13.25C187.52,277.73,194.35,270.2,189.65,266Z" style="fill: rgb(255, 255, 255); opacity: 0.4; transform-origin: 182.5px 272.032px;" class="animable"></path></g><path d="M223.63,287H141.37a9.38,9.38,0,0,0,0,18.76h82.26a9.38,9.38,0,0,0,0-18.76Z" style="fill: rgb(255, 255, 255); transform-origin: 182.5px 296.38px;" id="eld5cvvdrcktq" class="animable"></path><path d="M155.37,301.37v-9.95H159a5.34,5.34,0,0,1,2.12.4,4.38,4.38,0,0,1,1.52,1.06,4.42,4.42,0,0,1,.91,1.58,6.23,6.23,0,0,1,0,4,4.36,4.36,0,0,1-1,1.57,4.59,4.59,0,0,1-1.53,1,5.37,5.37,0,0,1-2,.36Zm6.51-5a4.55,4.55,0,0,0-.19-1.31,2.91,2.91,0,0,0-.57-1,2.53,2.53,0,0,0-.93-.67,3,3,0,0,0-1.24-.24h-1.67v6.55H159a3,3,0,0,0,1.26-.25,2.62,2.62,0,0,0,.91-.69,3.13,3.13,0,0,0,.57-1.05A4.49,4.49,0,0,0,161.88,296.38Z" style="fill: rgb(224, 224, 224); transform-origin: 159.625px 296.405px;" id="el9bv5rxhb4va" class="animable"></path><path d="M169.51,301.44a4.51,4.51,0,0,1-2-.43,4.74,4.74,0,0,1-1.51-1.14,5.26,5.26,0,0,1-1.33-3.47,5,5,0,0,1,.37-1.91,5.16,5.16,0,0,1,1-1.61,4.78,4.78,0,0,1,1.54-1.11,4.43,4.43,0,0,1,1.93-.41,4.23,4.23,0,0,1,1.95.44A4.88,4.88,0,0,1,173,293a5.26,5.26,0,0,1,1,1.63,4.93,4.93,0,0,1,.35,1.84,5.06,5.06,0,0,1-.36,1.9,5.2,5.2,0,0,1-1,1.6,4.61,4.61,0,0,1-1.53,1.1A4.43,4.43,0,0,1,169.51,301.44Zm-2.86-5a4,4,0,0,0,.2,1.24,3.52,3.52,0,0,0,.56,1.07,3.08,3.08,0,0,0,.9.74,2.67,2.67,0,0,0,1.22.28,2.6,2.6,0,0,0,1.23-.29,2.85,2.85,0,0,0,.9-.76,3.5,3.5,0,0,0,.55-1.07,3.87,3.87,0,0,0,.19-1.21,4,4,0,0,0-.2-1.25,3.33,3.33,0,0,0-.57-1.07,2.68,2.68,0,0,0-.9-.73,2.84,2.84,0,0,0-2.44,0,2.89,2.89,0,0,0-.9.76,3.56,3.56,0,0,0-.55,1.06A4.2,4.2,0,0,0,166.65,296.4Z" style="fill: rgb(224, 224, 224); transform-origin: 169.51px 296.401px;" id="elcotu7prwrj" class="animable"></path><path d="M177.72,295v6.37H175.8v-9.95h1.49l5.13,6.53v-6.51h1.92v9.93h-1.55Z" style="fill: rgb(224, 224, 224); transform-origin: 180.07px 296.395px;" id="elqqxrvtory5" class="animable"></path><path d="M189.2,291.42h1.69l3.75,9.95h-2l-.92-2.48h-3.44l-.9,2.48h-2Zm2.21,6.11-1.36-3.91-1.42,3.91Z" style="fill: rgb(224, 224, 224); transform-origin: 190.01px 296.395px;" id="el52h42uy6l2b" class="animable"></path><path d="M202.12,293.12H199v8.25h-1.9v-8.25h-3.15v-1.7h8.2Z" style="fill: rgb(224, 224, 224); transform-origin: 198.05px 296.395px;" id="ellsaa7oe7lqs" class="animable"></path><path d="M210.19,299.67v1.7h-6.85v-9.95h6.72v1.7h-4.8v2.39h4.15v1.57h-4.15v2.59Z" style="fill: rgb(224, 224, 224); transform-origin: 206.765px 296.395px;" id="el0pc2dodiryl" class="animable"></path><g id="elzm0afaify1j"><polygon points="264.98 184.39 234.85 188.68 242.72 244.66 264.98 242.4 264.98 184.39" style="fill: rgb(38, 50, 56); opacity: 0.3; transform-origin: 249.915px 214.525px;" class="animable"></polygon></g><g id="elz0gpgfy7g3k"><circle cx="183.89" cy="198.96" r="55.46" style="fill: rgb(255, 255, 255); opacity: 0.7; isolation: isolate; transform-origin: 183.89px 198.96px;" class="animable"></circle></g><path d="M203.78,165.05s11.33,16.76,17.69,17.44,31.24-20.72,31.24-20.72l4.22,3.65s-23.67,26-33.55,27.52-28.66-18.06-28.66-18.06Z" style="fill: rgb(228, 137, 123); transform-origin: 225.825px 177.397px;" id="elpr0se6lfnb" class="animable"></path><path d="M201.08,166.3s4-3.92,9.5,2.89,7.76,8.2,7.76,8.2l-14,13.67S196.11,169.94,201.08,166.3Z" style="fill: rgb(156, 190, 37); transform-origin: 208.912px 178.119px;" id="elwh3r1m5dai" class="animable"></path><path d="M250.74,160.22s.49-6.29,1.95-6.69.94,4.25.94,4.25,7.7-4.7,9.25-4.28,1.3,3.46,1,4.28c-2.35,7-10.75,9.9-10.75,9.9l-3.39-3.2Z" style="fill: rgb(228, 137, 123); transform-origin: 256.922px 160.577px;" id="elvagj37w1t1i" class="animable"></path><path d="M193,148.41s7.73,12.88,5.36,21-14.56.82-14.56.82l.15-16Z" style="fill: rgb(38, 50, 56); transform-origin: 191.306px 160.827px;" id="elhkl7q6m8e3" class="animable"></path><path d="M172.27,126.21s-11.43,5.79-6.94,26.16c7.52,34.15,18.62,20,18.62,20s-.49-13.46-5-20-3.57-15.87-3.57-15.87Z" style="fill: rgb(38, 50, 56); transform-origin: 174.117px 150.743px;" id="elhjobb851jit" class="animable"></path><path d="M205.42,216.43l-34.27,3a121.42,121.42,0,0,0-3.65-25.17c-.82-3.28-1.84-6.95-3.16-11.18-.71-2.27-1.49-4.7-2.36-7.31-.65-2-1.36-4.09-2.14-6.32A102.37,102.37,0,0,1,174.07,166a107.1,107.1,0,0,1,15.38-1.62c6.67-.06,14.33.69,14.33.69s1.09.26,1.78,7.33C206.18,179,206.79,192.29,205.42,216.43Z" style="fill: rgb(156, 190, 37); transform-origin: 183.043px 191.903px;" id="elrzhm14gk9x" class="animable"></path><g id="elcnhnzap61zm"><path d="M205.42,216.43l-34.27,3a121.42,121.42,0,0,0-3.65-25.17c-.82-3.28-1.84-6.95-3.16-11.18-.71-2.27-1.49-4.7-2.36-7.31-.65-2-1.36-4.09-2.14-6.32A102.37,102.37,0,0,1,174.07,166a107.1,107.1,0,0,1,15.38-1.62c6.67-.06,14.33.69,14.33.69s1.09.26,1.78,7.33C206.18,179,206.79,192.29,205.42,216.43Z" style="fill: rgb(255, 255, 255); opacity: 0.2; isolation: isolate; transform-origin: 183.043px 191.903px;" class="animable"></path></g><g id="el6bpksfrvrsp"><path d="M171,216.82c5.49-2.14,23.59-11,23.59-11l-24,5.42C170.7,213.06,170.85,214.9,171,216.82Z" style="opacity: 0.2; isolation: isolate; transform-origin: 182.59px 211.32px;" class="animable"></path></g><path d="M186.63,171.92c-8.45-1.08-11-4.68-11-4.68,5.36-5.06.91-13.82.91-13.82l10.16,1.9a29.91,29.91,0,0,0-.39,4.28c-.08,6.17,2.71,6.23,2.71,6.23C190.81,169.17,186.63,171.92,186.63,171.92Z" style="fill: rgb(228, 137, 123); transform-origin: 182.548px 162.67px;" id="elgaeck6spo0j" class="animable"></path><g id="elgbtsoewjy6h"><path d="M186.71,155.32a29.91,29.91,0,0,0-.39,4.28c-6.87,0-9.77-6.18-9.77-6.18Z" style="opacity: 0.2; isolation: isolate; transform-origin: 181.63px 156.51px;" class="animable"></path></g><path d="M182.15,126.86c8.84-.49,10.84,3.75,12,12.82,1.44,11.34-.6,19.93-11.78,18.11-12.27-2-15.71-21.43-8.33-28.86C175.77,127.17,179.34,127,182.15,126.86Z" style="fill: rgb(228, 137, 123); transform-origin: 182.369px 142.428px;" id="elqyf4u2dsb6c" class="animable"></path><path d="M188.44,140.83a18.64,18.64,0,0,0,2.77,3.52,2.42,2.42,0,0,1-2.27,1.13Z" style="fill: rgb(222, 87, 83); transform-origin: 189.825px 143.16px;" id="ellwpcj82xocc" class="animable"></path><path d="M183.09,139.81a1.93,1.93,0,0,0,.86-.87l-1.53.74,0,0a1.25,1.25,0,0,0-.6,1.31c.05.73.49,1.28,1,1.25s.83-.66.78-1.38A1.53,1.53,0,0,0,183.09,139.81Z" style="fill: rgb(38, 50, 56); transform-origin: 182.874px 140.591px;" id="el7j9cisghgaa" class="animable"></path><path d="M191.67,139a1.93,1.93,0,0,0,.86-.87l-1.52.74h0a1.28,1.28,0,0,0-.61,1.32c.06.73.5,1.28,1,1.24s.83-.65.77-1.38A1.45,1.45,0,0,0,191.67,139Z" style="fill: rgb(38, 50, 56); transform-origin: 191.456px 139.781px;" id="el45la7a1tiq4" class="animable"></path><path d="M183.08,135.73a4.63,4.63,0,0,0-3.76,1.55" style="fill: none; stroke: rgb(38, 50, 56); stroke-linecap: round; stroke-linejoin: round; stroke-width: 0.707336px; transform-origin: 181.2px 136.5px;" id="elttsle4nf3f" class="animable"></path><path d="M188.45,135.37a4.15,4.15,0,0,1,3.6-.23" style="fill: none; stroke: rgb(38, 50, 56); stroke-linecap: round; stroke-linejoin: round; stroke-width: 0.707336px; transform-origin: 190.25px 135.102px;" id="elqjk9ny6jlcq" class="animable"></path><path d="M167.81,168.17s9.92,8.05,19.15,7.92,12.48-10.51,12.48-10.51S185.12,161.34,167.81,168.17Z" style="fill: rgb(228, 137, 123); transform-origin: 183.625px 170.185px;" id="eltz4zr7vka2b" class="animable"></path><path d="M153.22,188.27s-3.12,18.4-2.75,23.64,8.29,5.4,12.75,4.87c5.13-.61,31.88-11.19,31.88-11.19l-1.24-5.29S172.92,206,164,207a2.75,2.75,0,0,1-3-3.14l2.07-13.66Z" style="fill: rgb(228, 137, 123); transform-origin: 172.77px 202.626px;" id="elybrrhgwg9bn" class="animable"></path><path d="M159.84,169.41s5.47-1.21,6.53,7.48a31.72,31.72,0,0,1-2,15.53l-13.86-2.5S153.7,169.86,159.84,169.41Z" style="fill: rgb(156, 190, 37); transform-origin: 158.557px 180.886px;" id="elchucudo6iir" class="animable"></path><path d="M200.69,195a1.71,1.71,0,0,0-1.14-.23c-1.64.42-6.62,5.35-6.91,6l1.28,4.67s2.62,1.4,3.89,1,7.71-5.14,7.72-6.28a.81.81,0,0,0,0-.19c.23-.17.42-.31.55-.39C207.17,198.9,203.14,195.89,200.69,195Z" style="fill: rgb(228, 137, 123); transform-origin: 199.452px 200.632px;" id="ellfu3nm6q1f" class="animable"></path><path d="M181.63,126.89s1.13,11.08-8.11,11.48-1.52-9.93-1.52-9.93Z" style="fill: rgb(38, 50, 56); transform-origin: 175.326px 132.636px;" id="el81j4t7l7gue" class="animable"></path><path d="M179.65,123.47c-15.19.48-13.93,22.7-5.72,28.9,0,0-4-5.38-1.68-10.06,0,0,3-7.24,2-12.81a24.48,24.48,0,0,1,7.39-1.91c1.71,2.08,6,8.4,11.62,8.27a20.68,20.68,0,0,1,.75,3S194.86,123,179.65,123.47Z" style="fill: rgb(38, 50, 56); transform-origin: 180.976px 137.915px;" id="elaavt41k5rrl" class="animable"></path><path d="M190.74,149.74h0a6.17,6.17,0,0,1-5.6.1.21.21,0,0,1-.08-.29.19.19,0,0,1,.27-.08h0a5.77,5.77,0,0,0,5.2-.11.21.21,0,0,1,.28.08v0a.2.2,0,0,1-.08.27Z" style="fill: rgb(38, 50, 56); transform-origin: 187.933px 149.899px;" id="elcrf1ksktdhi" class="animable"></path><path d="M173.8,144.1a3.88,3.88,0,0,0-4.37-3.31c-2.72.44-3.72,6.14,3.17,7.12C173.58,148.05,174.08,147.06,173.8,144.1Z" style="fill: rgb(228, 137, 123); transform-origin: 170.621px 144.338px;" id="el1fnn4m85dy9" class="animable"></path><path d="M172.77,184.51l9.2-1.3s3,9.81-2.46,10.86C173.54,195.23,172.77,184.51,172.77,184.51Z" style="fill: rgb(156, 190, 37); transform-origin: 177.781px 188.684px;" id="elolo2lt75hk" class="animable"></path><path d="M207.43,237.37c-.46-4.54-1.18-10.72-2.1-15.58l.09-5.36-34.27,3-.31,5c-.8,1.48-4.3,8.81-5.88,26.74a55.5,55.5,0,0,0,44-2.66Z" style="fill: rgb(38, 50, 56); transform-origin: 186.96px 235.463px;" id="el4xlipeqa8h4" class="animable"></path></g><g id="freepik--Character--inject-10" class="animable" style="transform-origin: 302.698px 260.765px;"><path d="M294.34,220.82l-17.43,4.42a6.66,6.66,0,0,0-4.51-.92c-2.47.46-8.65,5.51-8.41,6.25s7.69,4.17,8.76,3.89c3.84-1,7.8-5.47,7.8-5.47l15.58-3.21Z" style="fill: rgb(228, 137, 123); transform-origin: 280.057px 227.648px;" id="els4ma10p55gk" class="animable"></path><path d="M338,158.14c-3.54,3.77-12.92,3.45-12.92,3.45s-3.09.27-3.86-2.35c3.39-.84,3.91-3.28,4.44-5.39a10.07,10.07,0,0,0,0-3.95,18.38,18.38,0,0,0-.46-2.18l10.89-9.47C335.08,144,334,154.34,338,158.14Z" style="fill: rgb(228, 137, 123); transform-origin: 329.61px 149.924px;" id="el83vuf53i0up" class="animable"></path><g id="eldeyo3i57x2g"><path d="M333.91,143.9c.09,7-5.46,9.34-8.22,9.95a10.07,10.07,0,0,0,0-3.95Z" style="opacity: 0.2; isolation: isolate; transform-origin: 329.801px 148.875px;" class="animable"></path></g><path d="M334.81,145.44a9.82,9.82,0,0,1-10.95,4.69,10.89,10.89,0,0,1-6.63-4.58,9,9,0,0,1-.6-1c-3.35-6.38-5.16-17.85,1.48-22.73A10.65,10.65,0,0,1,335,128.55C336.44,136.2,337.66,140.63,334.81,145.44Z" style="fill: rgb(228, 137, 123); transform-origin: 325.079px 135.059px;" id="el2mbcjy88d2p" class="animable"></path><path d="M323.63,134.05a1,1,0,0,1-.45,1.3c-.4.1-.85-.32-1-.93s.05-1.2.45-1.3S323.47,133.43,323.63,134.05Z" style="fill: rgb(38, 50, 56); transform-origin: 322.925px 134.235px;" id="eldugunu9iu35" class="animable"></path><path d="M316.88,135.47c.2.6-.05,1.2-.44,1.3s-.86-.32-1-.93.05-1.2.45-1.3S316.73,134.89,316.88,135.47Z" style="fill: rgb(38, 50, 56); transform-origin: 316.172px 135.655px;" id="elgffk46szvlj" class="animable"></path><path d="M319.31,135.66a21.44,21.44,0,0,1-1.41,5.86c1,.4,2.4-.23,3.35-.75Z" style="fill: rgb(222, 87, 83); transform-origin: 319.575px 138.653px;" id="elms12eje920c" class="animable"></path><path d="M325.63,130.77a.38.38,0,0,1-.38-.06,3,3,0,0,0-2.62-.62.37.37,0,1,1-.23-.7h0a3.75,3.75,0,0,1,3.31.74.37.37,0,0,1,.07.52h0A.58.58,0,0,1,325.63,130.77Z" style="fill: rgb(38, 50, 56); transform-origin: 323.984px 130.035px;" id="elwskhbg7qozg" class="animable"></path><path d="M322.68,143.8h0a5.79,5.79,0,0,0,4.41-2.88.19.19,0,0,0-.09-.26.18.18,0,0,0-.25.08h0a5.46,5.46,0,0,1-4.11,2.65.19.19,0,0,0-.18.21v0a.19.19,0,0,0,.21.17Z" style="fill: rgb(38, 50, 56); transform-origin: 324.785px 142.219px;" id="ela1kpjc0lhqv" class="animable"></path><path d="M313.48,133.68a.31.31,0,0,1-.21.07.36.36,0,0,1-.29-.43h0a3.72,3.72,0,0,1,2.08-2.69.37.37,0,0,1,.48.21h0a.37.37,0,0,1-.21.48h0a3,3,0,0,0-1.61,2.16A.39.39,0,0,1,313.48,133.68Z" style="fill: rgb(38, 50, 56); transform-origin: 314.269px 132.177px;" id="elwkm2hzgkzw" class="animable"></path><path d="M339.84,133.9a7.47,7.47,0,0,1-3.2,4.68c-2.19,1.4-4-.37-4.08-2.83,0-2.19,1.08-5.63,3.59-6S340.3,131.54,339.84,133.9Z" style="fill: rgb(228, 137, 123); transform-origin: 336.239px 134.392px;" id="elnqiav5lvm9" class="animable"></path><path d="M305.4,164.08a29.89,29.89,0,0,0-8,13c-1.88,6-3.64,20.13-4.5,27.8a6.94,6.94,0,0,1-5.71,6l-21.06,3.67,1.68,10.71,26.68-2.57A13.33,13.33,0,0,0,306.29,212c1.63-8.25,3.81-20.21,4.8-29.68C312.77,166.23,311,162.42,305.4,164.08Z" style="fill: rgb(156, 190, 37); transform-origin: 288.914px 194.492px;" id="elzjm06n2csoh" class="animable"></path><g id="el5nesff68jbg"><path d="M305.4,164.08a29.89,29.89,0,0,0-8,13c-1.88,6-3.64,20.13-4.5,27.8a6.94,6.94,0,0,1-5.71,6l-21.06,3.67,1.68,10.71,26.68-2.57A13.33,13.33,0,0,0,306.29,212c1.63-8.25,3.81-20.21,4.8-29.68C312.77,166.23,311,162.42,305.4,164.08Z" style="opacity: 0.1; transform-origin: 288.914px 194.492px;" class="animable"></path></g><polygon points="290.61 402.1 282.69 400.15 287.2 383.18 295.12 385.13 290.61 402.1" style="fill: rgb(228, 137, 123); transform-origin: 288.905px 392.64px;" id="eld5mq874syk6" class="animable"></polygon><path d="M282.77,397.41l9,3.24a.68.68,0,0,1,.44.74l-.91,7.11a1.17,1.17,0,0,1-1.31,1,1,1,0,0,1-.25-.07c-2.89-1.09-4.94-2-8.59-3.35-2.25-.82-9.12-3-12.22-4.15s-2.4-4.33-1-4.16c6.15.82,11.06.65,13.47-.33A1.89,1.89,0,0,1,282.77,397.41Z" style="fill: rgb(46, 53, 58); transform-origin: 279.479px 403.403px;" id="el9ujzi4tsds" class="animable"></path><path d="M279.85,397.82a2.28,2.28,0,0,1-1.28-.89,1.08,1.08,0,0,1,0-1.07.56.56,0,0,1,.48-.38c1-.13,2.83,2.2,3,2.47a.16.16,0,0,1,0,.2.17.17,0,0,1-.18.1A9.5,9.5,0,0,1,279.85,397.82Zm-.55-1.93a.48.48,0,0,0-.24,0s-.13,0-.19.16a.79.79,0,0,0,0,.72,3.86,3.86,0,0,0,2.59,1.08A7.71,7.71,0,0,0,279.3,395.89Z" style="fill: rgb(156, 190, 37); transform-origin: 280.257px 396.863px;" id="elnpwvxgshfw" class="animable"></path><path d="M281.84,398.24l-.09,0c-.61-.69-1.5-2.85-1.07-3.57a.61.61,0,0,1,.73-.26,1,1,0,0,1,.67.49c.6,1,0,3.2,0,3.31a.17.17,0,0,1-.14.12A.16.16,0,0,1,281.84,398.24Zm-.41-3.53-.08,0c-.23-.08-.29.05-.32.09-.27.45.23,2,.78,2.87a4.37,4.37,0,0,0,0-2.63A.63.63,0,0,0,281.43,394.71Z" style="fill: rgb(156, 190, 37); transform-origin: 281.457px 396.352px;" id="elhbqkgab4t47" class="animable"></path><g id="elb36p831ajgm"><polygon points="295.12 385.13 287.2 383.18 284.88 391.94 292.8 393.88 295.12 385.13" style="opacity: 0.2; isolation: isolate; transform-origin: 290px 388.53px;" class="animable"></polygon></g><polygon points="343.05 402.02 334.95 402.98 333.2 385.51 341.3 384.55 343.05 402.02" style="fill: rgb(228, 137, 123); transform-origin: 338.125px 393.765px;" id="el2zw0bvtuwvu" class="animable"></polygon><path d="M334.06,400.39l9.55-.13a.7.7,0,0,1,.68.54l1.64,7a1.17,1.17,0,0,1-.88,1.39,1.09,1.09,0,0,1-.26,0c-3.09,0-5.34-.17-9.22-.12-2.39,0-9.59.37-12.89.42s-3.78-3.22-2.43-3.53c6-1.4,10.58-3.29,12.5-5.06A1.86,1.86,0,0,1,334.06,400.39Z" style="fill: rgb(46, 53, 58); transform-origin: 332.752px 404.875px;" id="el5gte6um1hdb" class="animable"></path><path d="M331.48,401.8a2.33,2.33,0,0,1-1.52-.38,1.09,1.09,0,0,1-.4-1,.56.56,0,0,1,.31-.53c.87-.46,3.43,1.07,3.71,1.24a.17.17,0,0,1,.09.18.18.18,0,0,1-.14.16A8.93,8.93,0,0,1,331.48,401.8Zm-1.19-1.61a.39.39,0,0,0-.24.05c-.05,0-.11.07-.12.22a.78.78,0,0,0,.26.67,3.82,3.82,0,0,0,2.8.1A7.54,7.54,0,0,0,330.29,400.19Z" style="fill: rgb(156, 190, 37); transform-origin: 331.611px 400.808px;" id="elrazh1o15vz8" class="animable"></path><path d="M333.48,401.5h-.09c-.81-.43-2.4-2.14-2.25-3a.6.6,0,0,1,.59-.5,1,1,0,0,1,.79.23c.92.73,1.14,3,1.15,3.09a.19.19,0,0,1-.09.17Zm-1.62-3.17h-.09c-.24,0-.26.14-.26.19-.1.51.92,1.81,1.74,2.41a4.4,4.4,0,0,0-1-2.45A.57.57,0,0,0,331.86,398.33Z" style="fill: rgb(156, 190, 37); transform-origin: 332.4px 399.745px;" id="elmxduy0dmy69" class="animable"></path><g id="elarrv20hux3c"><polygon points="341.3 384.55 333.2 385.51 334.11 394.52 342.21 393.56 341.3 384.55" style="opacity: 0.2; isolation: isolate; transform-origin: 337.705px 389.535px;" class="animable"></polygon></g><path d="M305.38,242.36S285,342,284.3,380.26l13.58,6.07s11.06-43.23,14.65-67.52c0,0,9.52-19.29,12.08-35,0,0-.53,69,6.62,105.41l12.74-1s12.85-129.44,10.53-150.16Z" style="fill: rgb(156, 190, 37); transform-origin: 319.54px 313.64px;" id="el1445tie6fpb" class="animable"></path><g id="el9hkkblgc78k"><path d="M305.38,242.36S285,342,284.3,380.26l13.58,6.07s11.06-43.23,14.65-67.52c0,0,9.52-19.29,12.08-35,0,0-.53,69,6.62,105.41l12.74-1s12.85-129.44,10.53-150.16Z" style="fill: rgb(255, 255, 255); opacity: 0.6; isolation: isolate; transform-origin: 319.54px 313.64px;" class="animable"></path></g><g id="elj9vwlouyjxn"><path d="M322.4,258.66s-1.51,23.69.64,32.39c.65-2.45,1.19-4.89,1.57-7.25Z" style="opacity: 0.2; isolation: isolate; transform-origin: 323.247px 274.855px;" class="animable"></path></g><polygon points="329.61 392.11 347.1 389.51 346.56 384.67 328.38 387.05 329.61 392.11" style="fill: rgb(156, 190, 37); transform-origin: 337.74px 388.39px;" id="elbjlymm0zh57" class="animable"></polygon><polygon points="282 383.99 298.89 389.19 300.5 384.6 283.07 378.89 282 383.99" style="fill: rgb(156, 190, 37); transform-origin: 291.25px 384.04px;" id="elolqal7x536c" class="animable"></polygon><path d="M305.4,164.08s2.16-4.27,21.14-5.37S354,160.42,354,160.42s-1.72,40.18.48,77.65c0,0-31.74,11.31-49.12,4.29C305.38,242.36,292.36,193.83,305.4,164.08Z" style="fill: rgb(156, 190, 37); transform-origin: 327.039px 201.556px;" id="elkwaxjmmkw3l" class="animable"></path><g id="el2etcj871hy"><path d="M333.34,158.47c-2.1,0-4.36.1-6.8.24-1.47.09-2.82.19-4.09.31,0,0,1.62,3.07,4.09,3.07A8.15,8.15,0,0,0,333.34,158.47Z" style="opacity: 0.2; transform-origin: 327.895px 160.28px;" class="animable"></path></g><g id="el8vjpmy9lgmr"><path d="M353.51,210.68l-28.9,14.61s18.22.56,29.11-5.35Q353.59,215.25,353.51,210.68Z" style="opacity: 0.3; transform-origin: 339.165px 217.992px;" class="animable"></path></g><g id="elisec1lpfhp"><polygon points="326.17 169.96 336.44 215.65 334.16 221.56 326.17 169.96" style="opacity: 0.1; transform-origin: 331.305px 195.76px;" class="animable"></polygon></g><g id="elx91vmsigjw"><rect x="275.86" y="173.83" width="54.63" height="52.21" style="fill: rgb(156, 190, 37); transform-origin: 303.175px 199.935px; transform: rotate(-8.61565deg);" class="animable"></rect></g><g id="eloq7t7kio5t"><rect x="275.86" y="173.83" width="54.63" height="52.21" style="fill: rgb(255, 255, 255); opacity: 0.1; isolation: isolate; transform-origin: 303.175px 199.935px; transform: rotate(-8.61565deg);" class="animable"></rect></g><g id="elgb7xledzgyl"><rect x="247.39" y="179.19" width="42.34" height="52.21" style="fill: rgb(156, 190, 37); transform-origin: 268.56px 205.295px; transform: rotate(-8.8deg);" class="animable"></rect></g><g id="el9y90zi9vfkm"><rect x="247.39" y="179.19" width="42.34" height="52.21" style="fill: rgb(255, 255, 255); opacity: 0.3; isolation: isolate; transform-origin: 268.56px 205.295px; transform: rotate(-8.8deg);" class="animable"></rect></g><g id="elgb7jso4nco"><rect x="259.66" y="179.41" width="11.98" height="14.06" style="fill: rgb(255, 255, 255); opacity: 0.3; isolation: isolate; transform-origin: 265.65px 186.44px; transform: rotate(-8.8deg);" class="animable"></rect></g><g id="elgqsed5fn82"><rect x="303.83" y="172.58" width="11.98" height="14.06" style="opacity: 0.1; isolation: isolate; transform-origin: 309.82px 179.61px; transform: rotate(-8.8deg);" class="animable"></rect></g><g id="elaefsl5zlslo"><rect x="276.79" y="218.5" width="13.09" height="7.97" style="fill: rgb(255, 255, 255); opacity: 0.2; transform-origin: 283.335px 222.485px; transform: rotate(-8.8deg);" class="animable"></rect></g><g id="elm4wbkqfjy4"><path d="M309.41,224.88l-1.33-1.76-4.29.92a6.07,6.07,0,0,0-.26,2.26l6-.92Z" style="fill: rgb(46, 53, 58); opacity: 0.2; transform-origin: 306.522px 224.71px;" class="animable"></path></g><path d="M302,203.22c-1,.34-2.4.32-2.54-1-.11-1.1,1.19-2,2.18-1.82a.29.29,0,0,0,.1-.58,2.52,2.52,0,0,0-2.87,2.46c.17,1.74,2,2,3.35,1.5C302.61,203.65,302.4,203.09,302,203.22Z" style="fill: rgb(255, 255, 255); transform-origin: 300.649px 201.901px;" id="elxauyngqhvh" class="animable"></path><path d="M303,197.72c-.09-.37-.68-.31-.6.06q.65,2.86,1.27,5.71c.08.37.67.32.59-.06Z" style="fill: rgb(255, 255, 255); transform-origin: 303.33px 200.607px;" id="elzyaxfiwxicp" class="animable"></path><path d="M306.55,198.84a.18.18,0,0,0-.1.07c-2.67.51-1.1,4.68,1.38,3.91a2.25,2.25,0,0,0,1.25-2.74A1.81,1.81,0,0,0,306.55,198.84Zm1.32,3.31c-1.75,1-3.3-2.32-1.31-2.66a.27.27,0,0,0,.16-.08l0,0C308.5,198.67,309.23,201.37,307.87,202.15Z" style="fill: rgb(255, 255, 255); transform-origin: 307.121px 200.793px;" id="elnc46d3v3n2g" class="animable"></path><path d="M311.54,197.26l-1.09.19-.18-1.18c-.06-.38-.65-.32-.59.06s.12.81.19,1.22l-1.08.18c-.37.07-.32.66.06.6l1.11-.19.66,4.29c.06.37.65.31.59-.07-.22-1.44-.45-2.88-.67-4.32l1.07-.19C312,197.79,311.92,197.19,311.54,197.26Z" style="fill: rgb(255, 255, 255); transform-origin: 310.202px 199.346px;" id="elptb86qrsn9" class="animable"></path><path d="M315.72,198.05a2.2,2.2,0,0,0-2.38.09q-.21-1.17-.45-2.34c-.08-.37-.67-.31-.59.07q.61,3,1,6c.06.38.65.32.59-.06-.14-1-.3-2-.47-3h0a1.58,1.58,0,0,1,2.32.1,5.7,5.7,0,0,1,.55,2.44.3.3,0,0,0,.59-.06C316.82,200.21,316.78,198.62,315.72,198.05Z" style="fill: rgb(255, 255, 255); transform-origin: 314.586px 198.839px;" id="elluel7uneczj" class="animable"></path><path d="M318.24,196.91a1.92,1.92,0,0,0-.67,2.8,2.17,2.17,0,0,0,3.05.94c.34-.17.13-.73-.21-.56a1.49,1.49,0,0,1-1.87-.11,2.33,2.33,0,0,1-.48-.62c.88.07,2.49-.11,2.53-1.07C320.64,197.06,319.23,196.52,318.24,196.91Zm1.68,1.47c-.09.14-.5.23-.66.28a2.77,2.77,0,0,1-1.4.08h0a1.23,1.23,0,0,1,.2-.93,1.12,1.12,0,0,1,1.23-.36C319.58,197.52,320.2,198,319.92,198.38Z" style="fill: rgb(255, 255, 255); transform-origin: 319.007px 198.865px;" id="el69s0trt060f" class="animable"></path><path d="M325,198.07a1.47,1.47,0,0,0-1.69-.67c-.48.1-1.64.58-1.38-.37.16-.63,1-.87,1.59-.82.38,0,.48-.55.09-.59-1-.09-2.93.81-2.31,2.12.29.61,1,.54,1.58.4a2.54,2.54,0,0,1,1-.19.68.68,0,0,1,.47,1.12c-.42.55-1.24.45-1.84.35a.3.3,0,0,0-.1.59,2.63,2.63,0,0,0,2.22-.37A1.39,1.39,0,0,0,325,198.07Z" style="fill: rgb(255, 255, 255); transform-origin: 323.141px 197.862px;" id="elc6hwqndfhe" class="animable"></path><path d="M334.23,214.58l-17.47,4.26a6.7,6.7,0,0,0-4.51-1c-2.46.44-8.69,5.43-8.46,6.17s6,5.26,7.07,4.93,7.8-5.09,7.8-5.09l16.64-1.39Z" style="fill: rgb(228, 137, 123); transform-origin: 319.542px 221.769px;" id="el6ait6k2fzr3" class="animable"></path><path d="M352.89,160.36s-7.34,1.95-6.3,15.57c.46,5.92.69,12.24.81,17.5a18.55,18.55,0,0,1-10.3,17l-14.34,5.86,1.85,9s20.84-1.91,28.17-7.77,9.88-18.37,8.69-28.74C359.81,174.38,360.36,159.78,352.89,160.36Z" style="fill: rgb(156, 190, 37); transform-origin: 342.255px 192.817px;" id="el0wsgmm1423wf" class="animable"></path><g id="eldkogdh9djie"><path d="M352.89,160.36s-7.34,1.95-6.3,15.57c.46,5.92.69,12.24.81,17.5a18.55,18.55,0,0,1-10.3,17l-14.34,5.86,1.85,9s20.84-1.91,28.17-7.77,9.88-18.37,8.69-28.74C359.81,174.38,360.36,159.78,352.89,160.36Z" style="opacity: 0.1; transform-origin: 342.255px 192.817px;" class="animable"></path></g><polygon points="324.12 214.01 325.34 226.53 321.97 226.85 320.18 215.13 324.12 214.01" style="fill: rgb(156, 190, 37); transform-origin: 322.76px 220.43px;" id="elwt6f2o1e81" class="animable"></polygon><g id="elysgj1y2xgc"><polygon points="324.12 214.01 325.34 226.53 321.97 226.85 320.18 215.13 324.12 214.01" style="fill: rgb(255, 255, 255); opacity: 0.6; isolation: isolate; transform-origin: 322.76px 220.43px;" class="animable"></polygon></g><g id="elk3uzeff255k"><rect x="330.19" y="180.13" width="11.67" height="1.86" style="fill: rgb(255, 255, 255); opacity: 0.4; transform-origin: 336.025px 181.06px; transform: rotate(-5.11deg);" class="animable"></rect></g><path d="M326.54,158.71l3.76,5,7.93-5.23V158a2.66,2.66,0,0,0-1-2.2,2.74,2.74,0,0,0-2.55-.17Z" style="fill: rgb(156, 190, 37); transform-origin: 332.386px 159.552px;" id="elctr6sd1jajc" class="animable"></path><path d="M321.25,159.11l.93-1.54c1.17-1.38,2.1-.67,2.1-.67l2.26,1.81-3.3,5Z" style="fill: rgb(156, 190, 37); transform-origin: 323.895px 160.214px;" id="elf49ybznps57" class="animable"></path><g id="elvk6oyi2qj6"><path d="M326.54,158.71l3.76,5,7.93-5.23V158a2.66,2.66,0,0,0-1-2.2,2.74,2.74,0,0,0-2.55-.17Z" style="fill: rgb(255, 255, 255); opacity: 0.6; isolation: isolate; transform-origin: 332.386px 159.552px;" class="animable"></path></g><g id="elw4n0s2tsuoq"><path d="M321.25,159.11l.93-1.54c1.17-1.38,2.1-.67,2.1-.67l2.26,1.81-3.3,5Z" style="fill: rgb(255, 255, 255); opacity: 0.6; isolation: isolate; transform-origin: 323.895px 160.214px;" class="animable"></path></g><path d="M339.64,133.7c.53-3.42-1.84-3.89-3.4-3.48s-3.25,2.89-3.25,2.89c-1.52-2.46-2.38-8.69-2.38-8.69a14.26,14.26,0,0,1-12.71.54,10.11,10.11,0,0,1-4.13,5.07s-2.82-1.29-1.25-7.77c1.78-7.37,12.85-14.5,24-7.15s4.4,21,4.4,21-2.53,4.47-4.77,6.15a14.13,14.13,0,0,0,0-4A6.15,6.15,0,0,0,339.64,133.7Z" style="fill: rgb(46, 53, 58); transform-origin: 327.495px 127.14px;" id="elxsn06pwlyxi" class="animable"></path><path d="M316.58,123.13a11.59,11.59,0,0,0,2.22,2.08,12.8,12.8,0,0,0,2.72,1.48,11.34,11.34,0,0,0,3,.73,12.87,12.87,0,0,0,3.16-.09,13,13,0,0,1-3.17.34,11.55,11.55,0,0,1-3.19-.51,12.56,12.56,0,0,1-3-1.33,12.34,12.34,0,0,1-2.59-2.07Z" style="fill: rgb(46, 53, 58); transform-origin: 321.705px 125.401px;" id="elw54vlt8bf4" class="animable"></path></g><g id="freepik--Love--inject-10" class="animable animator-active" style="transform-origin: 253.79px 146.424px;"><path d="M445.17,179.64c-8.1-7.24-17.56,2.58-17.56,2.58s-9.47-9.82-17.56-2.58c-11.54,10.33,5.24,28.83,17.56,32.53C439.93,208.47,456.71,190,445.17,179.64Z" style="fill: rgb(156, 190, 37); transform-origin: 427.61px 194.574px;" id="eln74o9qs12sq" class="animable"></path><g id="elnoe3598f1i"><path d="M445.17,179.64c-8.1-7.24-17.56,2.58-17.56,2.58s-9.47-9.82-17.56-2.58c-11.54,10.33,5.24,28.83,17.56,32.53C439.93,208.47,456.71,190,445.17,179.64Z" style="fill: rgb(255, 255, 255); opacity: 0.6; isolation: isolate; transform-origin: 427.61px 194.574px;" class="animable"></path></g><path d="M281.67,83.34c-8.1-7.24-17.56,2.58-17.56,2.58s-9.47-9.82-17.56-2.58c-11.54,10.32,5.24,28.82,17.56,32.53C276.43,112.16,293.21,93.66,281.67,83.34Z" style="fill: rgb(156, 190, 37); transform-origin: 264.11px 98.2738px;" id="elqh6gmlj1tag" class="animable"></path><g id="el2ddczr4tjmj"><path d="M281.67,83.34c-8.1-7.24-17.56,2.58-17.56,2.58s-9.47-9.82-17.56-2.58c-11.54,10.32,5.24,28.82,17.56,32.53C276.43,112.16,293.21,93.66,281.67,83.34Z" style="fill: rgb(255, 255, 255); opacity: 0.6; isolation: isolate; transform-origin: 264.11px 98.2738px;" class="animable"></path></g><path d="M376.84,113.4c-3.31-3-7.18,1.06-7.18,1.06s-3.86-4-7.17-1.06c-4.72,4.22,2.14,11.78,7.17,13.3C374.7,125.18,381.55,117.62,376.84,113.4Z" style="fill: rgb(156, 190, 37); transform-origin: 369.663px 119.498px;" id="eluxeisbjpyyl" class="animable"></path><g id="eladz7ygd9rv6"><path d="M376.84,113.4c-3.31-3-7.18,1.06-7.18,1.06s-3.86-4-7.17-1.06c-4.72,4.22,2.14,11.78,7.17,13.3C374.7,125.18,381.55,117.62,376.84,113.4Z" style="fill: rgb(255, 255, 255); opacity: 0.6; isolation: isolate; transform-origin: 369.663px 119.498px;" class="animable"></path></g><path d="M74.47,192.86c-3.31-3-7.17,1.06-7.17,1.06s-3.87-4-7.18-1.06c-4.71,4.22,2.14,11.78,7.18,13.29C72.33,204.64,79.19,197.08,74.47,192.86Z" style="fill: rgb(156, 190, 37); transform-origin: 67.2971px 198.953px;" id="elsrjgcp8ugr" class="animable"></path><g id="elwe8ym72dne"><path d="M74.47,192.86c-3.31-3-7.17,1.06-7.17,1.06s-3.87-4-7.18-1.06c-4.71,4.22,2.14,11.78,7.18,13.29C72.33,204.64,79.19,197.08,74.47,192.86Z" style="fill: rgb(255, 255, 255); opacity: 0.6; isolation: isolate; transform-origin: 67.2971px 198.953px;" class="animable"></path></g></g><defs>     <filter id="active" height="200%">         <feMorphology in="SourceAlpha" result="DILATED" operator="dilate" radius="2"></feMorphology>                <feFlood flood-color="#32DFEC" flood-opacity="1" result="PINK"></feFlood>        <feComposite in="PINK" in2="DILATED" operator="in" result="OUTLINE"></feComposite>        <feMerge>            <feMergeNode in="OUTLINE"></feMergeNode>            <feMergeNode in="SourceGraphic"></feMergeNode>        </feMerge>    </filter>    <filter id="hover" height="200%">        <feMorphology in="SourceAlpha" result="DILATED" operator="dilate" radius="2"></feMorphology>                <feFlood flood-color="#ff0000" flood-opacity="0.5" result="PINK"></feFlood>        <feComposite in="PINK" in2="DILATED" operator="in" result="OUTLINE"></feComposite>        <feMerge>            <feMergeNode in="OUTLINE"></feMergeNode>            <feMergeNode in="SourceGraphic"></feMergeNode>        </feMerge>            <feColorMatrix type="matrix" values="0   0   0   0   0                0   1   0   0   0                0   0   0   0   0                0   0   0   1   0 "></feColorMatrix>    </filter></defs></svg>