<svg id="visual" viewBox="0 0 900 600" width="900" height="600" xmlns="http://www.w3.org/2000/svg" xmlns:xlink="http://www.w3.org/1999/xlink" version="1.1"><path d="M0 468L30 443.7C60 419.3 120 370.7 180 375C240 379.3 300 436.7 360 436.3C420 436 480 378 540 375C600 372 660 424 720 422.5C780 421 840 366 870 338.5L900 311L900 0L870 0C840 0 780 0 720 0C660 0 600 0 540 0C480 0 420 0 360 0C300 0 240 0 180 0C120 0 60 0 30 0L0 0Z" fill="#9aa62d"></path><path d="M0 259L30 276.2C60 293.3 120 327.7 180 354.2C240 380.7 300 399.3 360 382C420 364.7 480 311.3 540 284.7C600 258 660 258 720 263.7C780 269.3 840 280.7 870 286.3L900 292L900 0L870 0C840 0 780 0 720 0C660 0 600 0 540 0C480 0 420 0 360 0C300 0 240 0 180 0C120 0 60 0 30 0L0 0Z" fill="#a4b037"></path><path d="M0 341L30 337C60 333 120 325 180 297.8C240 270.7 300 224.3 360 233C420 241.7 480 305.3 540 327.3C600 349.3 660 329.7 720 324C780 318.3 840 326.7 870 330.8L900 335L900 0L870 0C840 0 780 0 720 0C660 0 600 0 540 0C480 0 420 0 360 0C300 0 240 0 180 0C120 0 60 0 30 0L0 0Z" fill="#afbb40"></path><path d="M0 290L30 291.5C60 293 120 296 180 283.7C240 271.3 300 243.7 360 217.8C420 192 480 168 540 160.2C600 152.3 660 160.7 720 187.5C780 214.3 840 259.7 870 282.3L900 305L900 0L870 0C840 0 780 0 720 0C660 0 600 0 540 0C480 0 420 0 360 0C300 0 240 0 180 0C120 0 60 0 30 0L0 0Z" fill="#b9c549"></path><path d="M0 192L30 186.2C60 180.3 120 168.7 180 154C240 139.3 300 121.7 360 124.3C420 127 480 150 540 173.5C600 197 660 221 720 218.7C780 216.3 840 187.7 870 173.3L900 159L900 0L870 0C840 0 780 0 720 0C660 0 600 0 540 0C480 0 420 0 360 0C300 0 240 0 180 0C120 0 60 0 30 0L0 0Z" fill="#c4d052"></path><path d="M0 145L30 149.2C60 153.3 120 161.7 180 157C240 152.3 300 134.7 360 125.3C420 116 480 115 540 113.5C600 112 660 110 720 106.7C780 103.3 840 98.7 870 96.3L900 94L900 0L870 0C840 0 780 0 720 0C660 0 600 0 540 0C480 0 420 0 360 0C300 0 240 0 180 0C120 0 60 0 30 0L0 0Z" fill="#ceda5c"></path><path d="M0 87L30 82.5C60 78 120 69 180 68.8C240 68.7 300 77.3 360 84.7C420 92 480 98 540 91C600 84 660 64 720 55.2C780 46.3 840 48.7 870 49.8L900 51L900 0L870 0C840 0 780 0 720 0C660 0 600 0 540 0C480 0 420 0 360 0C300 0 240 0 180 0C120 0 60 0 30 0L0 0Z" fill="#d9e565"></path></svg>