<?xml version="1.0" encoding="UTF-8" standalone="no"?>
<!DOCTYPE svg PUBLIC "-//W3C//DTD SVG 1.1//EN" "http://www.w3.org/Graphics/SVG/1.1/DTD/svg11.dtd">
<svg xmlns="http://www.w3.org/2000/svg" version="1.1" viewBox="0.00 0.00 500.00 500.00">
<g stroke-width="2.00" fill="none" stroke-linecap="butt">
<path stroke="#488244" vector-effect="non-scaling-stroke" d="
  M 371.01 158.71
  Q 394.24 206.01 417.48 252.78
  Q 420.64 259.14 420.93 261.90
  Q 421.56 267.71 417.71 272.53
  Q 415.88 274.83 409.24 278.11
  Q 348.25 308.25 287.18 338.49"
/>
<path stroke="#488244" vector-effect="non-scaling-stroke" d="
  M 148.75 300.63
  Q 139.17 280.97 129.62 261.85
  Q 126.38 255.37 125.89 252.52
  Q 124.88 246.69 128.88 241.40
  Q 130.60 239.12 137.73 235.60
  Q 165.48 221.88 193.83 207.81"
/>
<path stroke="#6e322f" vector-effect="non-scaling-stroke" d="
  M 193.83 207.81
  L 197.71 215.55
  A 1.14 1.13 -26.2 0 0 199.23 216.06
  L 207.38 212.00"
/>
<path stroke="#492624" vector-effect="non-scaling-stroke" d="
  M 207.38 212.00
  Q 207.17 213.13 207.45 213.76
  Q 209.23 217.72 211.00 221.08"
/>
<path stroke="#6e322f" vector-effect="non-scaling-stroke" d="
  M 211.00 221.08
  L 235.03 269.72"
/>
<path stroke="#748482" vector-effect="non-scaling-stroke" d="
  M 235.03 269.72
  L 174.97 299.43
  Q 174.76 299.53 174.86 299.74
  L 176.92 304.08
  Q 177.03 304.31 177.26 304.20
  L 369.21 209.25
  Q 369.38 209.16 369.30 208.99
  L 367.21 204.56
  Q 367.12 204.37 366.93 204.46
  L 306.72 234.22"
/>
<path stroke="#6e322f" vector-effect="non-scaling-stroke" d="
  M 306.72 234.22
  L 282.64 185.56"
/>
<path stroke="#492624" vector-effect="non-scaling-stroke" d="
  M 282.64 185.56
  L 277.99 177.05"
/>
<path stroke="#6e322f" vector-effect="non-scaling-stroke" d="
  M 277.99 177.05
  L 285.88 173.16
  A 1.14 1.14 0.0 0 0 286.39 171.61
  L 282.56 164.28"
/>
<path stroke="#b63737" vector-effect="non-scaling-stroke" d="
  M 239.13 207.02
  L 211.00 221.08"
/>
<path stroke="#e19595" vector-effect="non-scaling-stroke" d="
  M 235.03 269.72
  L 263.17 255.78"
/>
<path stroke="#e19595" vector-effect="non-scaling-stroke" d="
  M 306.72 234.22
  L 278.49 248.23"
/>
<path stroke="#b63737" vector-effect="non-scaling-stroke" d="
  M 277.99 177.05
  L 251.88 189.99
  Q 251.41 190.22 251.00 189.89
  L 248.79 188.12"
/>
<path stroke="#b59357" vector-effect="non-scaling-stroke" d="
  M 213.77 176.32
  L 186.27 189.94
  A 1.15 1.14 64.0 0 0 185.75 191.47
  L 193.83 207.81"
/>
<path stroke="#b63737" vector-effect="non-scaling-stroke" d="
  M 234.96 198.40
  L 207.38 212.00"
/>
<path stroke="#b63737" vector-effect="non-scaling-stroke" d="
  M 282.64 185.56
  L 256.49 198.56
  Q 256.06 198.78 255.92 199.24
  L 255.31 201.37"
/>
<path stroke="#e28a46" vector-effect="non-scaling-stroke" d="
  M 242.24 162.15
  Q 241.27 163.13 239.21 164.76
  Q 238.34 165.44 238.14 166.37
  Q 237.79 168.00 239.36 168.39
  Q 251.32 171.41 265.94 172.02
  Q 266.90 172.06 266.09 172.58
  C 262.78 174.68 260.48 176.73 260.46 181.01
  A 0.47 0.47 0.0 0 1 259.76 181.42
  Q 251.24 176.75 242.63 173.44
  Q 241.22 172.90 241.89 174.25
  L 248.79 188.12"
/>
<path stroke="#bd7e3b" vector-effect="non-scaling-stroke" d="
  M 248.79 188.12
  L 255.31 201.37"
/>
<path stroke="#e28a46" vector-effect="non-scaling-stroke" d="
  M 255.31 201.37
  L 278.49 248.23"
/>
<path stroke="#e8dc99" vector-effect="non-scaling-stroke" d="
  M 278.49 248.23
  L 263.17 255.78"
/>
<path stroke="#e28a46" vector-effect="non-scaling-stroke" d="
  M 263.17 255.78
  L 239.13 207.02"
/>
<path stroke="#bd7e3b" vector-effect="non-scaling-stroke" d="
  M 239.13 207.02
  L 234.96 198.40"
/>
<path stroke="#e28a46" vector-effect="non-scaling-stroke" d="
  M 234.96 198.40
  L 226.09 180.28
  Q 225.20 178.47 224.80 180.45
  L 220.58 201.30
  Q 220.28 202.80 219.58 201.44
  Q 219.24 200.78 218.96 200.11
  C 217.81 197.31 214.62 197.74 212.18 198.32
  Q 211.14 198.56 211.73 197.67
  C 216.35 190.59 219.09 182.38 222.30 174.44
  A 0.57 0.56 -82.9 0 0 221.70 173.67
  Q 217.50 174.24 213.77 176.32"
/>
<path stroke="#bcda5b" vector-effect="non-scaling-stroke" d="
  M 213.77 176.32
  Q 212.76 175.16 211.25 175.05
  Q 208.74 174.88 206.28 174.35
  Q 201.90 173.40 200.75 169.25"
/>
<path stroke="#748482" vector-effect="non-scaling-stroke" d="
  M 365.4792 226.8778
  A 0.55 0.55 0.0 0 0 364.7424 226.6284
  L 312.8000 252.2999
  A 0.55 0.55 0.0 0 0 312.5506 253.0367
  L 326.4808 281.2222
  A 0.55 0.55 0.0 0 0 327.2176 281.4716
  L 379.1600 255.8001
  A 0.55 0.55 0.0 0 0 379.4094 255.0633
  L 365.4792 226.8778"
/>
<path stroke="#748482" vector-effect="non-scaling-stroke" d="
  M 279.0901 266.6928
  A 0.56 0.56 0.0 0 0 278.3400 266.4389
  L 182.4518 313.8298
  A 0.56 0.56 0.0 0 0 182.1979 314.5799
  L 184.0499 318.3272
  A 0.56 0.56 0.0 0 0 184.8000 318.5811
  L 280.6882 271.1902
  A 0.56 0.56 0.0 0 0 280.9421 270.4401
  L 279.0901 266.6928"
/>
<path stroke="#748482" vector-effect="non-scaling-stroke" d="
  M 286.1605 281.0207
  A 0.29 0.29 0.0 0 0 285.7720 280.8892
  L 189.3997 328.5194
  A 0.29 0.29 0.0 0 0 189.2682 328.9079
  L 191.3595 333.1393
  A 0.29 0.29 0.0 0 0 191.7480 333.2708
  L 288.1203 285.6406
  A 0.29 0.29 0.0 0 0 288.2518 285.2521
  L 286.1605 281.0207"
/>
<path stroke="#748482" vector-effect="non-scaling-stroke" d="
  M 293.3992 295.6893
  A 0.39 0.39 0.0 0 0 292.8768 295.5125
  L 196.6838 343.0540
  A 0.39 0.39 0.0 0 0 196.5070 343.5765
  L 198.5008 347.6107
  A 0.39 0.39 0.0 0 0 199.0232 347.7875
  L 295.2162 300.2460
  A 0.39 0.39 0.0 0 0 295.3930 299.7235
  L 293.3992 295.6893"
/>
</g>
<rect fill="#db4342" x="317.23" y="60.89" width="0.52" height="11.50" rx="0.25"/>
<rect fill="#db4342" x="-6.10" y="-0.29" transform="translate(332.82,73.85) rotate(-44.6)" width="12.20" height="0.58" rx="0.27"/>
<path fill="#db4342" d="
  M 300.13 72.37
  Q 298.75 71.47 297.72 70.20
  Q 297.54 69.98 297.75 69.81
  L 297.94 69.65
  Q 297.96 69.63 297.97 69.65
  Q 299.50 71.32 301.03 72.85
  Q 302.01 73.83 300.94 73.09
  Q 300.78 72.98 300.65 72.83
  Q 300.43 72.56 300.13 72.37
  Z"
/>
<path fill="#cad65a" d="
  M 248.45 88.53
  L 255.40 91.81
  A 0.35 0.35 0.0 0 1 255.33 92.47
  L 247.81 94.08
  A 0.35 0.35 0.0 0 0 247.54 94.38
  L 246.56 102.00
  A 0.35 0.35 0.0 0 1 245.91 102.13
  L 242.06 95.48
  A 0.35 0.35 0.0 0 0 241.69 95.31
  L 234.14 96.74
  A 0.35 0.35 0.0 0 1 233.81 96.16
  L 238.95 90.44
  A 0.35 0.35 0.0 0 0 238.99 90.04
  L 235.30 83.30
  A 0.35 0.35 0.0 0 1 235.75 82.81
  L 242.78 85.93
  A 0.35 0.35 0.0 0 0 243.17 85.85
  L 248.44 80.25
  A 0.35 0.35 0.0 0 1 249.05 80.53
  L 248.26 88.17
  A 0.35 0.35 0.0 0 0 248.45 88.53
  Z"
/>
<path fill="#db4342" d="
  M 300.18 89.65
  Q 294.75 89.77 289.34 89.69
  Q 289.17 89.68 289.17 89.52
  L 289.16 89.27
  Q 289.16 89.23 289.20 89.24
  Q 294.62 89.28 300.12 89.31
  Q 300.32 89.31 300.32 89.51
  L 300.32 89.51
  Q 300.32 89.65 300.18 89.65
  Z"
/>
<ellipse fill="#db4342" cx="0.00" cy="0.00" transform="translate(339.47,89.50) rotate(0.1)" rx="5.32" ry="0.17"/>
<path fill="#db4342" d="
  M 304.58 102.15
  C 302.40 104.31 300.40 106.59 298.17 108.70
  Q 298.07 108.79 297.98 108.69
  L 297.97 108.69
  Q 297.87 108.59 297.97 108.48
  Q 301.06 105.32 304.28 102.20
  Q 304.36 102.13 304.46 102.12
  Q 304.51 102.12 304.55 102.11
  Q 304.65 102.08 304.58 102.15
  Z"
/>
<path fill="#01211c" d="
  M 336.55 108.59
  Q 334.22 106.94 333.02 105.22
  Q 332.75 105.15 332.58 104.92
  Q 331.99 104.17 332.76 104.75
  Q 334.90 106.38 336.78 108.32
  Q 338.06 109.66 336.55 108.59
  Z"
/>
<ellipse fill="#01211c" cx="0.00" cy="0.00" transform="translate(317.45,112.97) rotate(90.4)" rx="1.80" ry="0.18"/>
<path fill="#db4342" d="
  M 126.51 136.79
  L 131.94 127.71
  A 0.41 0.41 0.0 0 0 131.96 127.32
  L 127.16 117.88
  A 0.41 0.41 0.0 0 1 127.62 117.30
  L 137.92 119.56
  A 0.41 0.41 0.0 0 0 138.30 119.45
  L 145.83 111.99
  A 0.41 0.41 0.0 0 1 146.53 112.24
  L 147.75 122.68
  A 0.41 0.41 0.0 0 0 147.98 123.00
  L 157.62 127.90
  A 0.41 0.41 0.0 0 1 157.60 128.65
  L 147.52 132.97
  A 0.41 0.41 0.0 0 0 147.27 133.28
  L 145.55 143.77
  A 0.41 0.41 0.0 0 1 144.84 143.97
  L 137.97 136.16
  A 0.41 0.41 0.0 0 0 137.61 136.03
  L 126.92 137.40
  A 0.41 0.41 0.0 0 1 126.51 136.79
  Z"
/>
<circle fill="#db4342" cx="267.81" cy="127.79" r="6.01"/>
<path fill="#01211c" d="
  M 371.01 158.71
  Q 394.24 206.01 417.48 252.78
  Q 420.64 259.14 420.93 261.90
  Q 421.56 267.71 417.71 272.53
  Q 415.88 274.83 409.24 278.11
  Q 348.25 308.25 287.18 338.49
  Q 282.13 340.34 277.10 342.84
  Q 242.25 360.17 207.36 377.42
  Q 200.77 380.68 198.18 380.71
  Q 190.42 380.82 185.97 374.10
  Q 184.62 372.06 183.45 369.69
  Q 167.17 336.81 150.79 303.85
  Q 150.39 303.04 149.84 302.27
  Q 149.16 301.31 148.75 300.63
  Q 139.17 280.97 129.62 261.85
  Q 126.38 255.37 125.89 252.52
  Q 124.88 246.69 128.88 241.40
  Q 130.60 239.12 137.73 235.60
  Q 165.48 221.88 193.83 207.81
  L 197.71 215.55
  A 1.14 1.13 -26.2 0 0 199.23 216.06
  L 207.38 212.00
  Q 207.17 213.13 207.45 213.76
  Q 209.23 217.72 211.00 221.08
  L 235.03 269.72
  L 174.97 299.43
  Q 174.76 299.53 174.86 299.74
  L 176.92 304.08
  Q 177.03 304.31 177.26 304.20
  L 369.21 209.25
  Q 369.38 209.16 369.30 208.99
  L 367.21 204.56
  Q 367.12 204.37 366.93 204.46
  L 306.72 234.22
  L 282.64 185.56
  L 277.99 177.05
  L 285.88 173.16
  A 1.14 1.14 0.0 0 0 286.39 171.61
  L 282.56 164.28
  Q 312.36 149.70 341.55 135.06
  Q 350.79 130.44 357.53 135.87
  Q 360.33 138.12 363.67 144.61
  Q 366.83 150.74 369.86 156.66
  Q 370.54 157.99 371.01 158.71
  Z
  M 365.4792 226.8778
  A 0.55 0.55 0.0 0 0 364.7424 226.6284
  L 312.8000 252.2999
  A 0.55 0.55 0.0 0 0 312.5506 253.0367
  L 326.4808 281.2222
  A 0.55 0.55 0.0 0 0 327.2176 281.4716
  L 379.1600 255.8001
  A 0.55 0.55 0.0 0 0 379.4094 255.0633
  L 365.4792 226.8778
  Z
  M 279.0901 266.6928
  A 0.56 0.56 0.0 0 0 278.3400 266.4389
  L 182.4518 313.8298
  A 0.56 0.56 0.0 0 0 182.1979 314.5799
  L 184.0499 318.3272
  A 0.56 0.56 0.0 0 0 184.8000 318.5811
  L 280.6882 271.1902
  A 0.56 0.56 0.0 0 0 280.9421 270.4401
  L 279.0901 266.6928
  Z
  M 286.1605 281.0207
  A 0.29 0.29 0.0 0 0 285.7720 280.8892
  L 189.3997 328.5194
  A 0.29 0.29 0.0 0 0 189.2682 328.9079
  L 191.3595 333.1393
  A 0.29 0.29 0.0 0 0 191.7480 333.2708
  L 288.1203 285.6406
  A 0.29 0.29 0.0 0 0 288.2518 285.2521
  L 286.1605 281.0207
  Z
  M 293.3992 295.6893
  A 0.39 0.39 0.0 0 0 292.8768 295.5125
  L 196.6838 343.0540
  A 0.39 0.39 0.0 0 0 196.5070 343.5765
  L 198.5008 347.6107
  A 0.39 0.39 0.0 0 0 199.0232 347.7875
  L 295.2162 300.2460
  A 0.39 0.39 0.0 0 0 295.3930 299.7235
  L 293.3992 295.6893
  Z"
/>
<path fill="#e9d14a" d="
  M 242.24 162.15
  Q 241.27 163.13 239.21 164.76
  Q 238.34 165.44 238.14 166.37
  Q 237.79 168.00 239.36 168.39
  Q 251.32 171.41 265.94 172.02
  Q 266.90 172.06 266.09 172.58
  C 262.78 174.68 260.48 176.73 260.46 181.01
  A 0.47 0.47 0.0 0 1 259.76 181.42
  Q 251.24 176.75 242.63 173.44
  Q 241.22 172.90 241.89 174.25
  L 248.79 188.12
  L 255.31 201.37
  L 278.49 248.23
  L 263.17 255.78
  L 239.13 207.02
  L 234.96 198.40
  L 226.09 180.28
  Q 225.20 178.47 224.80 180.45
  L 220.58 201.30
  Q 220.28 202.80 219.58 201.44
  Q 219.24 200.78 218.96 200.11
  C 217.81 197.31 214.62 197.74 212.18 198.32
  Q 211.14 198.56 211.73 197.67
  C 216.35 190.59 219.09 182.38 222.30 174.44
  A 0.57 0.56 -82.9 0 0 221.70 173.67
  Q 217.50 174.24 213.77 176.32
  Q 212.76 175.16 211.25 175.05
  Q 208.74 174.88 206.28 174.35
  Q 201.90 173.40 200.75 169.25
  Q 203.89 165.47 208.28 163.24
  A 2.06 2.05 63.7 0 0 209.20 160.51
  C 207.86 157.77 206.72 153.45 208.51 150.67
  Q 208.77 150.27 209.23 150.16
  C 214.43 148.90 221.01 154.96 223.69 158.80
  A 0.81 0.80 50.1 0 0 224.92 158.91
  Q 225.47 158.35 225.28 157.56
  Q 223.38 149.47 225.54 143.48
  C 226.22 141.60 228.32 140.24 230.25 141.33
  Q 233.88 143.38 235.55 147.14
  Q 236.54 149.39 238.65 148.20
  Q 242.82 145.84 247.38 146.56
  Q 247.90 146.64 248.14 147.11
  Q 250.10 150.85 248.34 153.36
  Q 245.76 157.05 242.24 162.15
  Z
  M 234.82 153.41
  Q 232.94 149.97 230.64 146.52
  Q 228.83 143.80 228.31 147.02
  C 227.70 150.70 228.17 155.08 229.40 158.71
  Q 230.23 161.16 230.72 163.67
  A 1.50 1.50 0.0 0 0 233.17 164.52
  C 237.92 160.48 242.28 157.37 244.97 151.55
  A 1.08 1.08 0.0 0 0 243.63 150.08
  Q 239.58 151.55 235.90 153.71
  A 0.78 0.78 0.0 0 1 234.82 153.41
  Z
  M 207.03 168.93
  A 0.25 0.25 0.0 0 0 207.23 169.32
  Q 214.68 169.57 221.23 169.34
  Q 222.73 169.28 224.25 168.76
  A 1.34 1.34 0.0 0 0 224.96 166.81
  Q 220.61 159.47 214.07 154.81
  Q 213.08 154.12 211.91 154.41
  A 1.00 0.99 -18.0 0 0 211.23 155.74
  L 214.09 162.94
  A 1.71 1.70 -17.1 0 1 212.87 165.24
  Q 208.97 166.09 207.03 168.93
  Z"
/>
<path fill="#db4342" d="
  M 282.56 164.28
  L 286.39 171.61
  A 1.14 1.14 0.0 0 1 285.88 173.16
  L 277.99 177.05
  L 251.88 189.99
  Q 251.41 190.22 251.00 189.89
  L 248.79 188.12
  L 241.89 174.25
  Q 241.22 172.90 242.63 173.44
  Q 251.24 176.75 259.76 181.42
  A 0.47 0.47 0.0 0 0 260.46 181.01
  C 260.48 176.73 262.78 174.68 266.09 172.58
  Q 266.90 172.06 265.94 172.02
  Q 251.32 171.41 239.36 168.39
  Q 237.79 168.00 238.14 166.37
  Q 238.34 165.44 239.21 164.76
  Q 241.27 163.13 242.24 162.15
  L 273.44 147.47
  Q 273.89 147.26 274.12 147.71
  L 282.56 164.28
  Z"
/>
<path fill="#cad65a" d="
  M 371.01 158.71
  Q 381.52 161.35 388.13 169.88
  Q 393.84 177.26 398.07 185.49
  Q 404.87 198.74 411.58 211.92
  C 417.33 223.23 422.13 234.51 424.28 247.03
  C 426.35 259.10 423.33 270.47 417.34 281.26
  Q 414.99 285.49 414.58 289.40
  Q 413.50 300.04 422.83 306.36
  Q 426.44 308.80 431.84 310.29
  Q 438.27 312.06 444.87 314.18
  C 453.24 316.86 462.95 324.83 456.55 334.72
  C 450.68 343.80 438.43 348.58 427.87 350.79
  C 422.71 351.87 417.71 353.00 412.53 353.41
  Q 387.11 355.42 360.82 352.25
  C 336.42 349.30 311.57 344.33 287.18 338.49
  Q 348.25 308.25 409.24 278.11
  Q 415.88 274.83 417.71 272.53
  Q 421.56 267.71 420.93 261.90
  Q 420.64 259.14 417.48 252.78
  Q 394.24 206.01 371.01 158.71
  Z"
/>
<path fill="#cad65a" d="
  M 200.75 169.25
  Q 201.90 173.40 206.28 174.35
  Q 208.74 174.88 211.25 175.05
  Q 212.76 175.16 213.77 176.32
  L 186.27 189.94
  A 1.15 1.14 64.0 0 0 185.75 191.47
  L 193.83 207.81
  Q 165.48 221.88 137.73 235.60
  Q 130.60 239.12 128.88 241.40
  Q 124.88 246.69 125.89 252.52
  Q 126.38 255.37 129.62 261.85
  Q 139.17 280.97 148.75 300.63
  Q 131.92 295.77 117.80 289.93
  Q 111.58 287.36 105.66 282.82
  Q 95.58 275.11 95.39 263.01
  Q 95.24 253.15 98.77 242.88
  C 102.24 232.79 106.43 221.70 111.89 213.23
  Q 130.49 184.42 162.11 174.57
  Q 179.37 169.19 200.75 169.25
  Z"
/>
<ellipse fill="#e9d14a" cx="0.00" cy="0.00" transform="translate(114.64,181.40) rotate(-28.5)" rx="10.42" ry="10.27"/>
<path fill="#db4342" d="
  M 234.96 198.40
  L 207.38 212.00
  L 199.23 216.06
  A 1.14 1.13 -26.2 0 1 197.71 215.55
  L 193.83 207.81
  L 185.75 191.47
  A 1.15 1.14 64.0 0 1 186.27 189.94
  L 213.77 176.32
  Q 217.50 174.24 221.70 173.67
  A 0.57 0.56 -82.9 0 1 222.30 174.44
  C 219.09 182.38 216.35 190.59 211.73 197.67
  Q 211.14 198.56 212.18 198.32
  C 214.62 197.74 217.81 197.31 218.96 200.11
  Q 219.24 200.78 219.58 201.44
  Q 220.28 202.80 220.58 201.30
  L 224.80 180.45
  Q 225.20 178.47 226.09 180.28
  L 234.96 198.40
  Z"
/>
<path fill="#902b2b" d="
  M 277.99 177.05
  L 282.64 185.56
  L 256.49 198.56
  Q 256.06 198.78 255.92 199.24
  L 255.31 201.37
  L 248.79 188.12
  L 251.00 189.89
  Q 251.41 190.22 251.88 189.99
  L 277.99 177.05
  Z"
/>
<path fill="#db4342" d="
  M 282.64 185.56
  L 306.72 234.22
  L 278.49 248.23
  L 255.31 201.37
  L 255.92 199.24
  Q 256.06 198.78 256.49 198.56
  L 282.64 185.56
  Z"
/>
<path fill="#902b2b" d="
  M 234.96 198.40
  L 239.13 207.02
  L 211.00 221.08
  Q 209.23 217.72 207.45 213.76
  Q 207.17 213.13 207.38 212.00
  L 234.96 198.40
  Z"
/>
<path fill="#d9e565" d="
  M 235.03 269.72
  L 263.17 255.78
  L 278.49 248.23
  L 306.72 234.22
  L 366.93 204.46
  Q 367.12 204.37 367.21 204.56
  L 369.30 208.99
  Q 369.38 209.16 369.21 209.25
  L 177.26 304.20
  Q 177.03 304.31 176.92 304.08
  L 174.86 299.74
  Q 174.76 299.53 174.97 299.43
  L 235.03 269.72
  Z"
/>
<path fill="#db4342" d="
  M 239.13 207.02
  L 263.17 255.78
  L 235.03 269.72
  L 211.00 221.08
  L 239.13 207.02
  Z"
/>
<rect fill="#d9e565" x="-29.52" y="-16.27" transform="translate(345.98,254.05) rotate(-26.3)" width="59.04" height="32.54" rx="0.55"/>
<rect fill="#d9e565" x="-54.04" y="-2.65" transform="translate(231.57,292.51) rotate(-26.3)" width="108.08" height="5.30" rx="0.56"/>
<rect fill="#d9e565" x="-54.04" y="-2.65" transform="translate(238.76,307.08) rotate(-26.3)" width="108.08" height="5.30" rx="0.29"/>
<rect fill="#d9e565" x="-54.04" y="-2.64" transform="translate(245.95,321.65) rotate(-26.3)" width="108.08" height="5.28" rx="0.39"/>
<path fill="#cad65a" d="
  M 119.69 406.47
  C 116.39 405.71 110.08 404.48 107.95 401.44
  Q 107.66 401.03 107.90 400.59
  C 111.03 394.86 132.58 392.68 139.00 392.04
  Q 159.58 389.99 180.24 389.53
  C 208.66 388.89 236.70 389.60 264.49 393.48
  Q 272.03 394.53 280.88 397.38
  Q 282.94 398.04 284.27 399.41
  A 1.97 1.97 0.0 0 1 284.17 402.26
  C 281.58 404.57 276.38 405.84 273.11 406.55
  Q 261.74 409.04 246.32 410.46
  Q 187.48 415.91 132.63 408.79
  Q 126.11 407.95 119.69 406.47
  Z"
/>
</svg>
